<?xml version="1.0" standalone="no"?>
<!DOCTYPE svg PUBLIC "-//W3C//DTD SVG 20010904//EN"
 "http://www.w3.org/TR/2001/REC-SVG-20010904/DTD/svg10.dtd">
<svg version="1.0" xmlns="http://www.w3.org/2000/svg"
 width="260.000000pt" height="260.000000pt" viewBox="0 0 260.000000 260.000000"
 preserveAspectRatio="xMidYMid meet">
<metadata>
Created by potrace 1.11, written by Peter Selinger 2001-2013
</metadata>
<g transform="translate(0.000000,260.000000) scale(0.100000,-0.100000)"
fill="#000000" stroke="none">
<path d="M130 2160 c0 -39 -1 -40 -35 -40 l-35 0 0 -65 0 -65 -30 0 -30 0 0
-995 0 -995 219 0 c231 0 231 0 231 45 0 37 47 132 91 185 52 63 155 147 166
137 3 -4 -14 -33 -39 -64 -81 -105 -157 -230 -170 -281 -6 -22 -5 -22 86 -22
l92 0 11 55 c13 62 55 161 91 218 20 29 28 35 38 26 25 -20 16 -83 -25 -170
-21 -46 -41 -94 -44 -107 l-5 -22 929 0 929 0 0 765 0 765 -25 0 -25 0 0 220
0 220 -25 0 c-20 0 -25 5 -25 25 0 14 -4 25 -10 25 -5 0 -10 -11 -10 -25 0
-21 -5 -25 -30 -25 -23 0 -30 -4 -30 -20 0 -16 -7 -20 -30 -20 -23 0 -30 -4
-30 -20 0 -11 -4 -20 -10 -20 -6 0 -10 -38 -10 -95 l0 -94 -57 -3 -58 -3 -3
-67 -3 -68 -39 0 -40 0 0 -176 0 -175 -52 3 -53 3 -3 280 -3 280 28 22 28 23
-32 0 -33 0 0 60 c0 47 -3 60 -15 60 -10 0 -15 11 -15 35 0 19 -4 35 -10 35
-5 0 -10 16 -10 35 0 33 -2 35 -35 35 -33 0 -35 -2 -35 -35 0 -19 -4 -35 -9
-35 -5 0 -11 -10 -13 -22 -2 -13 -9 -22 -16 -20 -8 1 -12 -17 -12 -62 l0 -65
-50 34 c-27 18 -73 39 -102 45 -77 17 -214 23 -280 12 l-58 -9 0 44 0 43 -79
0 -78 0 -22 58 c-24 64 -37 89 -45 81 -9 -9 -26 -141 -26 -206 0 -59 -2 -63
-30 -78 -16 -9 -30 -22 -30 -29 0 -8 -15 -24 -33 -35 -43 -27 -110 -95 -147
-151 l-30 -45 0 47 c0 41 -3 47 -22 50 -20 3 -23 10 -26 61 l-3 57 -34 0 c-24
0 -35 5 -35 15 0 8 -4 15 -10 15 -5 0 -10 32 -12 72 l-3 71 -77 1 -78 1 0 -67
c0 -78 -17 -108 -62 -108 -28 0 -28 -1 -28 -60 0 -57 -1 -60 -25 -60 -24 0
-25 -3 -25 -56 l0 -56 -30 4 -30 5 0 -515 c0 -284 -2 -513 -4 -511 -5 6 -16
710 -16 1082 l0 337 -30 0 -30 0 0 65 0 65 -30 0 c-28 0 -30 2 -30 40 0 39 -1
40 -35 40 -34 0 -35 -1 -35 -40z m1066 -176 c40 -112 37 -124 -34 -124 l-45 0
6 88 c4 48 10 104 13 126 8 47 12 41 60 -90z m39 -147 c-22 -12 -101 -20 -129
-13 -52 13 -24 23 58 22 47 0 78 -4 71 -9z m-233 -115 c-68 -66 -119 -161
-129 -240 -3 -29 -10 -55 -14 -58 -15 -9 -10 -94 8 -127 9 -18 22 -63 29 -102
6 -38 21 -113 33 -165 22 -99 25 -139 15 -177 -8 -29 -20 -29 -27 0 -2 12 -24
94 -47 182 -41 154 -43 166 -44 315 -1 139 2 161 22 210 29 71 85 145 147 192
71 54 75 36 7 -30z m818 -258 l0 -105 -47 3 -48 3 -3 93 c-3 88 -2 93 20 102
13 5 35 9 51 9 l27 1 0 -106z"/>
</g>
</svg>
